<?xml version="1.0" encoding="UTF-8"?>
<svg version="1.1" xmlns="http://www.w3.org/2000/svg" width="134" height="119">
<path d="M0 0 C44.22 0 88.44 0 134 0 C134 39.27 134 78.54 134 119 C89.78 119 45.56 119 0 119 C0 79.73 0 40.46 0 0 Z " fill="#14263A" transform="translate(0,0)"/>
<path d="M0 0 C0.69323364 -0.00014603 1.38646729 -0.00029205 2.10070801 -0.0004425 C4.37861321 0.00025088 6.65643535 0.00801624 8.93432617 0.01586914 C10.51901708 0.01773536 12.10370857 0.0191583 13.68840027 0.02015686 C17.84929002 0.02396596 22.0101446 0.03378247 26.17102051 0.04486084 C30.4208936 0.05510957 34.6707724 0.05966189 38.9206543 0.06469727 C47.25205061 0.07540623 55.58341838 0.09246328 63.91479492 0.11352539 C61.98370849 2.83685241 59.97129458 5.48375711 57.91479492 8.11352539 C57.40814804 8.79352097 56.90150116 9.47351654 56.37950134 10.17411804 C53.92577787 13.08689473 52.07406412 14.83778962 48.31008911 15.73306274 C45.15785863 15.9862517 42.08046812 16.00466769 38.91870117 15.94555664 C37.77118881 15.95310471 36.62367645 15.96065277 35.44139099 15.96842957 C31.78588787 15.9868979 28.13266865 15.95854437 24.47729492 15.92602539 C20.82606124 15.92000145 17.17512401 15.9238564 13.52391052 15.93717957 C11.2567022 15.94263687 8.98941797 15.93554519 6.7223053 15.91401672 C-1.81392069 15.89161193 -9.2742214 16.3861073 -16.08520508 22.11352539 C-19.72846584 26.90728955 -20.74839757 30.59766176 -20.46411133 36.61352539 C-19.85032105 40.6632757 -18.68335547 43.91757048 -16.08520508 47.11352539 C-12.01895684 49.615832 -7.95324629 50.86285573 -3.12036133 50.64868164 C4.31454104 48.69363054 10.16308272 39.62890563 14.91479492 34.11352539 C4.02479492 33.61852539 4.02479492 33.61852539 -7.08520508 33.11352539 C-5.10520508 30.80352539 -3.12520508 28.49352539 -1.08520508 26.11352539 C-0.49449219 25.31720703 0.0962207 24.52088867 0.70483398 23.70043945 C4.2923196 21.12436163 7.97588905 21.62162139 12.27416992 21.72290039 C13.17854797 21.72856018 14.08292603 21.73421997 15.01470947 21.74005127 C17.89861345 21.76241291 20.78126753 21.81260853 23.66479492 21.86352539 C25.62180821 21.88359068 27.578841 21.9018414 29.53588867 21.91821289 C34.32933782 21.962277 39.12185458 22.03130287 43.91479492 22.11352539 C42.58623298 25.03995776 41.11915315 27.18360169 38.90307617 29.50415039 C38.31316895 30.12757324 37.72326172 30.75099609 37.11547852 31.39331055 C36.49237793 32.04348145 35.86927734 32.69365234 35.22729492 33.36352539 C33.95429621 34.70906333 32.68215123 36.05540952 31.41088867 37.40258789 C30.8035791 38.04486328 30.19626953 38.68713867 29.57055664 39.34887695 C25.85595023 43.30776447 22.25191398 47.3450776 18.97729492 51.67602539 C13.42639525 58.23617955 6.15132393 64.36801572 -2.08520508 67.11352539 C-10.43292281 67.7175714 -18.04034209 68.16821458 -25.08520508 63.11352539 C-25.95145508 62.55665039 -26.81770508 61.99977539 -27.71020508 61.42602539 C-34.99545893 54.33248874 -37.95211721 46.75534066 -38.39770508 36.73852539 C-38.12881687 27.10896636 -34.92004853 18.28292274 -28.33520508 11.24243164 C-20.03112621 3.4573577 -11.29791306 -0.02006734 0 0 Z " fill="#0355D5" transform="translate(53.085205078125,24.886474609375)"/>
<path d="M0 0 C44.22 0 88.44 0 134 0 C134 39.27 134 78.54 134 119 C128.06 119 122.12 119 116 119 C115.67 118.67 115.34 118.34 115 118 C113.31391034 117.92794489 111.62499341 117.91613932 109.9375 117.9375 C109.01839844 117.94652344 108.09929687 117.95554687 107.15234375 117.96484375 C106.44207031 117.97644531 105.73179688 117.98804687 105 118 C106.41129694 115.17740612 108.07678318 115.05883564 111 114 C121.6154505 110.20916588 121.6154505 110.20916588 130 103 C130.41746608 99.87364791 130.41746608 99.87364791 130 97 C129.67 96.67 129.34 96.34 129 96 C128.87636703 94.03712234 128.8220456 92.06984842 128.79467773 90.10327148 C128.77473251 88.84203964 128.75478729 87.5808078 128.73423767 86.28135681 C128.71725205 84.89460373 128.70037329 83.50784934 128.68359375 82.12109375 C128.66303074 80.7100411 128.64203445 79.29899471 128.62062073 77.88795471 C128.56533245 74.1676641 128.51595314 70.44731727 128.46777344 66.72692871 C128.41760758 62.93313575 128.36189592 59.13942477 128.30664062 55.34570312 C128.19897649 47.89720477 128.09755003 40.44863841 128 33 C127.67 33 127.34 33 127 33 C126.95101562 31.68644531 126.90203125 30.37289063 126.8515625 29.01953125 C126.77650532 27.28383405 126.70095877 25.54815797 126.625 23.8125 C126.5940625 22.94818359 126.563125 22.08386719 126.53125 21.19335938 C126.32654611 16.74104978 126.06277067 13.05007413 124 9 C123.34 9.99 122.68 10.98 122 12 C120.93918213 10.53312744 120.93918213 10.53312744 119.85693359 9.03662109 C115.79198937 5.00721348 111.66069835 5.31814958 106.17227173 5.32022095 C104.89081268 5.35118866 103.60935364 5.38215637 102.2890625 5.4140625 C100.95244254 5.42526617 99.61579779 5.43380083 98.27914429 5.43978882 C94.7768235 5.46259675 91.27601789 5.52144452 87.77429199 5.5880127 C84.19478855 5.6496126 80.615038 5.67684118 77.03515625 5.70703125 C70.02281871 5.77120016 63.01148228 5.87347831 56 6 C56 5.34 56 4.68 56 4 C55.01 4.66 54.02 5.32 53 6 C50.2578125 6.23046875 50.2578125 6.23046875 47.125 6.1875 C45.58199219 6.17783203 45.58199219 6.17783203 44.0078125 6.16796875 C41.23760708 6.01326897 38.69911183 5.62248889 36 5 C36 4.67 36 4.34 36 4 C23.12004282 3.32387149 23.12004282 3.32387149 11 7 C10.21625 7.28875 9.4325 7.5775 8.625 7.875 C6.23647892 9.52859152 5.93589684 11.25080304 5 14 C4.30336482 15.60928128 3.59419417 17.2131731 2.875 18.8125 C2.52179688 19.60269531 2.16859375 20.39289062 1.8046875 21.20703125 C1.53914062 21.79871094 1.27359375 22.39039062 1 23 C0.67 23 0.34 23 0 23 C0 15.41 0 7.82 0 0 Z " fill="#2B3C4A" transform="translate(0,0)"/>
<path d="M0 0 C1.19317098 3.57951295 1.08874228 6.78111648 1.02172852 10.50073242 C1.0073172 11.6425573 1.0073172 11.6425573 0.99261475 12.80744934 C0.95963357 15.32355016 0.9192979 17.83947688 0.87890625 20.35546875 C0.85460427 22.09995408 0.83076075 23.84444586 0.80735779 25.58894348 C0.74452461 30.18064715 0.67545576 34.77223678 0.60510254 39.36383057 C0.5344122 44.0491415 0.46959942 48.7345333 0.40429688 53.41992188 C0.27529441 62.61337012 0.1397064 71.80670862 0 81 C0.66 81.33 1.32 81.66 2 82 C2.40729228 84.32156597 2.74438677 86.6568787 3 89 C3.804375 89.268125 4.60875 89.53625 5.4375 89.8125 C6.283125 90.204375 7.12875 90.59625 8 91 C8.33 91.99 8.66 92.98 9 94 C12.465 93.505 12.465 93.505 16 93 C16 93.33 16 93.66 16 94 C28.33464568 94.0231435 40.66928622 94.04092537 53.00394917 94.05181217 C58.73107481 94.05703659 64.45818563 94.06412628 70.18530273 94.07543945 C75.70956252 94.08628394 81.23380802 94.09228017 86.75807762 94.09487724 C88.86845309 94.09672866 90.97882775 94.10034388 93.08919716 94.10573006 C96.03905569 94.11296116 98.98885477 94.11399006 101.9387207 94.11352539 C102.81625504 94.11712067 103.69378937 94.12071594 104.59791565 94.12442017 C107.98204634 94.11863022 110.76688732 94.07770423 114 93 C114.33 92.34 114.66 91.68 115 91 C115.66 91 116.32 91 117 91 C120.47928514 87.9556255 122.60846256 85.42761914 124 81 C124.75 82.5625 124.75 82.5625 125 85 C122.41601296 91.0293031 119.90170847 93.25265295 114 96 C112.01643517 96.71408334 110.01684563 97.38617742 108 98 C106.32836805 98.65411685 104.65984798 99.31653318 103 100 C105.97 100.33 108.94 100.66 112 101 C112 100.34 112 99.68 112 99 C112.66 99.33 113.32 99.66 114 100 C113.67 100.66 113.34 101.32 113 102 C74.72 102 36.44 102 -3 102 C-3.061875 86.28375 -3.12375 70.5675 -3.1875 54.375 C-3.21481201 49.41774902 -3.24212402 44.46049805 -3.27026367 39.35302734 C-3.28381348 33.28637695 -3.28381348 33.28637695 -3.28633118 30.4437561 C-3.29092936 28.46399919 -3.3014629 26.48425053 -3.31672668 24.50454712 C-3.33872283 21.50076768 -3.34171679 18.4975004 -3.34057617 15.49365234 C-3.3513705 14.6158782 -3.36216482 13.73810406 -3.37328625 12.8337307 C-3.34767277 7.78644282 -2.71643447 4.42107006 0 0 Z " fill="#0F1C28" transform="translate(3,17)"/>
<path d="M0 0 C1.25908676 0.00222061 2.51817352 0.00444122 3.81541443 0.00672913 C4.50806396 0.0065831 5.2007135 0.00643707 5.91435242 0.00628662 C8.21400537 0.00698577 10.51357828 0.01477823 12.81321716 0.02259827 C14.40362504 0.02446244 15.99403349 0.02588635 17.58444214 0.02688599 C21.77827021 0.03071123 25.97206386 0.04054156 30.1658783 0.05158997 C34.44220006 0.06180395 38.71852736 0.06638358 42.99485779 0.07142639 C51.39135799 0.08216383 59.78783017 0.09924032 68.18431091 0.12025452 C66.25323128 2.84357195 64.23903273 5.48915045 62.18431091 8.12025452 C61.43304176 9.14283104 61.43304176 9.14283104 60.66659546 10.18606567 C58.18129021 13.16832131 56.33829198 14.86604015 52.4858551 15.71470642 C49.195738 15.93046528 45.983709 15.90782826 42.68821716 15.80384827 C41.49953537 15.79394363 40.31085358 15.784039 39.08615112 15.77383423 C35.30509402 15.7347796 31.52698434 15.64696286 27.74681091 15.55775452 C25.1771915 15.52262964 22.6075264 15.49069272 20.03782654 15.46205139 C13.7523228 15.38504632 7.46852744 15.2680424 1.18431091 15.12025452 C1.18431091 14.79025452 1.18431091 14.46025452 1.18431091 14.12025452 C3.16431091 13.79025452 5.14431091 13.46025452 7.18431091 13.12025452 C6.5694281 12.99908264 5.95454529 12.87791077 5.32102966 12.75306702 C4.10866638 12.50169983 4.10866638 12.50169983 2.87181091 12.24525452 C2.0713031 12.08283264 1.27079529 11.92041077 0.44602966 11.75306702 C-1.81568909 11.12025452 -1.81568909 11.12025452 -4.81568909 9.12025452 C-4.32068909 8.33650452 -3.82568909 7.55275452 -3.31568909 6.74525452 C-1.65030944 4.33473125 -1.65030944 4.33473125 -1.81568909 2.12025452 C-2.47568909 1.79025452 -3.13568909 1.46025452 -3.81568909 1.12025452 C-2.81568909 0.12025452 -2.81568909 0.12025452 0 0 Z " fill="#0AB2FB" transform="translate(48.81568908691406,24.879745483398438)"/>
<path d="M0 0 C1.91407654 0.01061211 1.91407654 0.01061211 3.86682129 0.0214386 C7.23434347 0.04458561 10.6001223 0.08937859 13.96716309 0.1449585 C17.41285257 0.19641255 20.8587233 0.2190079 24.3046875 0.24414062 C31.04735066 0.29911867 37.78919984 0.3826793 44.53125 0.48828125 C44.53125 0.81828125 44.53125 1.14828125 44.53125 1.48828125 C34.13625 1.98328125 34.13625 1.98328125 23.53125 2.48828125 C25.19467837 4.15170962 27.3138209 3.84876222 29.59375 4.05078125 C30.97240234 4.17646484 30.97240234 4.17646484 32.37890625 4.3046875 C33.44431641 4.39556641 33.44431641 4.39556641 34.53125 4.48828125 C34.53125 4.81828125 34.53125 5.14828125 34.53125 5.48828125 C33.49307129 5.46620605 32.45489258 5.44413086 31.38525391 5.42138672 C27.48950389 5.35203447 23.59595985 5.34962151 19.69970703 5.36621094 C18.02185627 5.3642783 16.34392177 5.34480114 14.66650391 5.30664062 C4.31203835 4.79242354 4.31203835 4.79242354 -4.86425781 8.79003906 C-7.96820298 11.77971949 -7.96820298 11.77971949 -11.46875 16.48828125 C-4.20875 16.81828125 3.05125 17.14828125 10.53125 17.48828125 C6.02754904 24.24383269 6.02754904 24.24383269 3.8046875 26.4453125 C3.3303125 26.91775391 2.8559375 27.39019531 2.3671875 27.87695312 C1.64402344 28.58174805 1.64402344 28.58174805 0.90625 29.30078125 C0.41640625 29.78998047 -0.0734375 30.27917969 -0.578125 30.78320312 C-3.95113589 34.11474257 -5.34437884 35.4120527 -10.15625 35.73828125 C-14.50087897 35.65943136 -17.66315585 34.68381634 -21.46875 32.48828125 C-25.68966004 27.15660541 -26.90183799 22.78561769 -26.8046875 16.12109375 C-26.15600851 11.03726071 -23.84328732 7.53946485 -20.00915527 4.22744751 C-13.64834369 -0.4195797 -7.65308817 -0.16090976 0 0 Z " fill="#0D2238" transform="translate(58.46875,40.51171875)"/>
<path d="M0 0 C1.58206057 0.00667536 3.16410534 0.0186375 4.74609375 0.03515625 C5.55240234 0.03966797 6.35871094 0.04417969 7.18945312 0.04882812 C9.18753131 0.06065107 11.18557158 0.07858711 13.18359375 0.09765625 C13.15492016 8.57070077 12.16049348 14.81227137 6.18359375 21.09765625 C-0.13214105 26.15266856 -5.17135988 27.22720008 -13.20703125 27.1953125 C-13.9116449 27.19389755 -14.61625854 27.1924826 -15.34222412 27.19102478 C-17.58366209 27.18544558 -19.82499868 27.17289698 -22.06640625 27.16015625 C-23.5898423 27.15513856 -25.11327993 27.15057612 -26.63671875 27.14648438 C-30.36331397 27.13548299 -34.08985021 27.11823271 -37.81640625 27.09765625 C-36.34004705 25.37523719 -34.86340805 23.65307745 -33.38476562 21.93261719 C-32.18783756 20.53222626 -31.00637455 19.11860219 -29.83203125 17.69921875 C-24.99098801 12.27982079 -24.99098801 12.27982079 -21.3984375 11.72265625 C-20.56699219 11.72265625 -19.73554687 11.72265625 -18.87890625 11.72265625 C-15.19353326 11.68842678 -14.0800343 11.32328386 -11.21484375 8.87109375 C-8.97509563 6.34693317 -6.86146176 3.78091816 -4.81640625 1.09765625 C-3.81640625 0.09765625 -3.81640625 0.09765625 0 0 Z " fill="#0158D8" transform="translate(101.81640625,64.90234375)"/>
<path d="M0 0 C0.90437805 0.00565979 1.8087561 0.01131958 2.74053955 0.01715088 C5.62444353 0.03951252 8.50709761 0.08970814 11.390625 0.140625 C13.34763829 0.16069029 15.30467108 0.17894101 17.26171875 0.1953125 C22.05516789 0.23937661 26.84768465 0.30840248 31.640625 0.390625 C30.31206306 3.31705737 28.84498323 5.4607013 26.62890625 7.78125 C25.74392456 8.71662598 25.74392456 8.71662598 24.84106445 9.67089844 C24.21804443 10.3209082 23.59502441 10.97091797 22.953125 11.640625 C21.6813556 12.98348911 20.41051219 14.32723083 19.140625 15.671875 C18.22990234 16.63480469 18.22990234 16.63480469 17.30078125 17.6171875 C14.78336546 20.3063799 12.36385181 23.07370494 9.97265625 25.875 C9.53308594 26.37515625 9.09351562 26.8753125 8.640625 27.390625 C7.92519531 28.22787109 7.92519531 28.22787109 7.1953125 29.08203125 C4.61991651 31.24976406 1.85628532 30.57264351 -1.359375 30.390625 C-1.689375 29.730625 -2.019375 29.070625 -2.359375 28.390625 C-3.349375 28.720625 -4.339375 29.050625 -5.359375 29.390625 C-6.349375 28.400625 -7.339375 27.410625 -8.359375 26.390625 C-6.97201374 23.23437814 -5.35544792 21.19199067 -2.859375 18.828125 C-0.63840767 16.71538277 0.91804917 14.97448874 2.640625 12.390625 C-4.619375 12.060625 -11.879375 11.730625 -19.359375 11.390625 C-17.379375 9.080625 -15.399375 6.770625 -13.359375 4.390625 C-12.47330566 3.19614746 -12.47330566 3.19614746 -11.56933594 1.97753906 C-7.98185033 -0.59853876 -4.29828087 -0.101279 0 0 Z " fill="#059CF3" transform="translate(65.359375,46.609375)"/>
<path d="M0 0 C0.33 0 0.66 0 1 0 C1 1.65 1 3.3 1 5 C1.66 5 2.32 5 3 5 C2.814375 5.886875 2.62875 6.77375 2.4375 7.6875 C2.01957516 10.85178811 2.19222258 12.94839642 3 16 C3.90105469 16.14308594 3.90105469 16.14308594 4.8203125 16.2890625 C7.47924098 17.15631157 8.21933363 18.1580908 9.875 20.375 C12.6526107 23.73156678 14.74540285 25.63531789 19 27 C24.99099821 27.55521957 30.4028823 27.42037522 36 25 C36 24.34 36 23.68 36 23 C38.5 21.375 38.5 21.375 41 20 C41.495 21.485 41.495 21.485 42 23 C43.98 22.67 45.96 22.34 48 22 C48.495 22.99 48.495 22.99 49 24 C51.52733235 24.65555119 51.52733235 24.65555119 54 25 C54 27 54 27 52.53125 28.55078125 C43.12940169 36.70507661 36.42079291 40.51143556 23.74609375 40.28515625 C18.96153551 39.92095109 15.85591321 38.76661773 12 36 C11.13375 35.443125 10.2675 34.88625 9.375 34.3125 C1.97678586 27.1089757 -1.00188565 19.44191495 -1.1875 9.25 C-1.11509604 6.06979517 -0.79808493 3.0925791 0 0 Z " fill="#023BB9" transform="translate(16,52)"/>
<path d="M0 0 C0.33 0.99 0.66 1.98 1 3 C0.67 3.66 0.34 4.32 0 5 C-0.66 5 -1.32 5 -2 5 C-2 5.66 -2 6.32 -2 7 C0.88628401 8.57554035 3.53342384 9.46276373 6.75 10.125 C7.54921875 10.29257812 8.3484375 10.46015625 9.171875 10.6328125 C9.77515625 10.75398438 10.3784375 10.87515625 11 11 C11 11.33 11 11.66 11 12 C8.69 12.33 6.38 12.66 4 13 C4 13.33 4 13.66 4 14 C2.80375 14.2475 1.6075 14.495 0.375 14.75 C-4.38433 15.96926299 -8.3616916 17.63411986 -11.2578125 21.81640625 C-12.23572741 23.50895129 -13.12581166 25.25162332 -14 27 C-14.99 26.67 -15.98 26.34 -17 26 C-18.6875 22.4375 -18.6875 22.4375 -20 19 C-20.99 19.66 -21.98 20.32 -23 21 C-23.77955182 18.27156864 -24.07379321 16.35974191 -23.5 13.5625 C-21.68406136 10.46027149 -19.51547095 8.65318843 -16.734375 6.41796875 C-14.85703294 4.94496492 -14.85703294 4.94496492 -12.875 2.75 C-8.72248086 -1.12568453 -5.39784348 -1.25531244 0 0 Z " fill="#036EE8" transform="translate(47,27)"/>
<path d="M0 0 C1.58206057 0.00667536 3.16410534 0.0186375 4.74609375 0.03515625 C5.55240234 0.03966797 6.35871094 0.04417969 7.18945312 0.04882812 C9.18753131 0.06065107 11.18557158 0.07858711 13.18359375 0.09765625 C13.03716638 8.08460368 12.2356972 13.75922387 7.18359375 20.09765625 C6.04921875 19.43765625 4.91484375 18.77765625 3.74609375 18.09765625 C-0.26170783 16.06172152 -3.30191752 15.78530646 -7.73828125 16.15234375 C-9.81640625 16.09765625 -9.81640625 16.09765625 -11.72265625 15.11328125 C-14.4500541 13.79028976 -16.55287905 13.9009056 -19.56640625 13.97265625 C-20.55125 13.99070312 -21.53609375 14.00875 -22.55078125 14.02734375 C-23.2984375 14.05054687 -24.04609375 14.07375 -24.81640625 14.09765625 C-24.48640625 13.43765625 -24.15640625 12.77765625 -23.81640625 12.09765625 C-22.31716154 12.05006118 -20.81594921 12.0606305 -19.31640625 12.09765625 C-14.15621121 11.74126868 -12.14162638 9.92583437 -8.75390625 6.09765625 C-7.42039224 4.44775491 -6.1023448 2.78490136 -4.81640625 1.09765625 C-3.81640625 0.09765625 -3.81640625 0.09765625 0 0 Z " fill="#0186F5" transform="translate(101.81640625,64.90234375)"/>
<path d="M0 0 C2.625 0.375 2.625 0.375 5 1 C5.3125 4.1875 5.3125 4.1875 5 8 C2.5 10.8125 2.5 10.8125 0 13 C0 13.66 0 14.32 0 15 C-1.175625 15.020625 -2.35125 15.04125 -3.5625 15.0625 C-9.0545748 15.74900935 -11.525967 18.97075625 -15 23 C-21.28976099 30.29497394 -21.28976099 30.29497394 -26.1953125 30.84765625 C-28.07863281 30.92306641 -28.07863281 30.92306641 -30 31 C-33.48741323 32.06323574 -36.39017637 33.39017637 -39 36 C-38.34 36.33 -37.68 36.66 -37 37 C-38.32 37.66 -39.64 38.32 -41 39 C-41 38.34 -41 37.68 -41 37 C-43.97 36.67 -46.94 36.34 -50 36 C-50 34.68 -50 33.36 -50 32 C-51.98 31.34 -53.96 30.68 -56 30 C-55.34 29.67 -54.68 29.34 -54 29 C-53.01 29.33 -52.02 29.66 -51 30 C-39.71747011 30.95730557 -32.27970696 29.44812577 -23 22.875 C-20.81505114 20.96917519 -20.81505114 20.96917519 -19 18 C-18.34 18 -17.68 18 -17 18 C-16.75121094 17.42765625 -16.50242188 16.8553125 -16.24609375 16.265625 C-14.81574627 13.66499322 -13.15335326 11.85253401 -11.0625 9.75 C-10.37285156 9.04359375 -9.68320313 8.3371875 -8.97265625 7.609375 C-7 6 -7 6 -4 6 C-3.566875 5.071875 -3.566875 5.071875 -3.125 4.125 C-2 2 -2 2 0 0 Z " fill="#071C3C" transform="translate(87,61)"/>
<path d="M0 0 C0.33 0 0.66 0 1 0 C1 1.65 1 3.3 1 5 C1.66 5 2.32 5 3 5 C2.814375 5.886875 2.62875 6.77375 2.4375 7.6875 C2.01957516 10.85178811 2.19222258 12.94839642 3 16 C3.89332031 16.14115234 3.89332031 16.14115234 4.8046875 16.28515625 C7.49172694 17.16011749 8.38269297 18.24365267 10.125 20.4375 C11.70296618 22.39564974 13.21849868 24.21849868 15 26 C15 26.99 15 27.98 15 29 C13.02 29.99 13.02 29.99 11 31 C13.97 31 16.94 31 20 31 C20 33.83967231 19.59732819 36.23735711 19 39 C10.95483756 36.89293365 6.57076942 32.21006473 2.2578125 25.390625 C-1.75510284 17.76359336 -2.13507594 8.27341928 0 0 Z " fill="#0338B5" transform="translate(16,52)"/>
<path d="M0 0 C0.66 0.33 1.32 0.66 2 1 C2 3.31 2 5.62 2 8 C2.99 8.33 3.98 8.66 5 9 C5.66 8.34 6.32 7.68 7 7 C7 7.66 7 8.32 7 9 C7.66 9 8.32 9 9 9 C9 8.34 9 7.68 9 7 C9.66 7 10.32 7 11 7 C11 6.34 11 5.68 11 5 C11.66 5 12.32 5 13 5 C11.05297456 10.64340876 7.78943529 14.46596426 3 18 C0.31575297 18.65973051 -1.22467102 18.46255483 -4 18 C-4.33 17.34 -4.66 16.68 -5 16 C-5.99 16.33 -6.98 16.66 -8 17 C-8.99 16.01 -9.98 15.02 -11 14 C-9.61263874 10.84375314 -7.99607292 8.80136567 -5.5 6.4375 C-3.27903267 4.32475777 -1.72257583 2.58386374 0 0 Z " fill="#016EEC" transform="translate(68,59)"/>
<path d="M0 0 C23.43 0 46.86 0 71 0 C64.25 9 64.25 9 61.125 11.5 C60.52945313 11.9846875 59.93390625 12.469375 59.3203125 12.96875 C58.88460937 13.3090625 58.44890625 13.649375 58 14 C58.18433594 13.38125 58.36867187 12.7625 58.55859375 12.125 C59.12886898 9.37960421 58.28840805 8.42523868 57 6 C57 4.68 57 3.36 57 2 C56.28457031 2.0721875 55.56914063 2.144375 54.83203125 2.21875 C47.23652026 2.92622321 39.62870618 3.40213335 32 3 C31.67 2.67 31.34 2.34 31 2 C28.71011219 1.84111908 26.41556559 1.74861927 24.12109375 1.68359375 C23.4344313 1.66281265 22.74776886 1.64203156 22.04029846 1.62062073 C19.83947065 1.55505857 17.63852025 1.49620985 15.4375 1.4375 C13.94855486 1.39432108 12.45962227 1.350707 10.97070312 1.30664062 C7.31393447 1.1993707 3.65702682 1.09812228 0 1 C0 0.67 0 0.34 0 0 Z " fill="#36C8EC" transform="translate(46,25)"/>
<path d="M0 0 C18.15 0 36.3 0 55 0 C54.34 0.99 53.68 1.98 53 3 C52.01 3 51.02 3 50 3 C50 5.31 50 7.62 50 10 C48.68 10 47.36 10 46 10 C46 9.01 46 8.02 46 7 C32.8 7 19.6 7 6 7 C6 6.67 6 6.34 6 6 C14.58 5.67 23.16 5.34 32 5 C31.34 4.34 30.68 3.68 30 3 C30.33 2.67 30.66 2.34 31 2 C20.77 1.67 10.54 1.34 0 1 C0 0.67 0 0.34 0 0 Z " fill="#194B6D" transform="translate(51,40)"/>
<path d="M0 0 C0.33 0 0.66 0 1 0 C1 1.98 1 3.96 1 6 C1.66 6 2.32 6 3 6 C3 4.02 3 2.04 3 0 C4.32 0 5.64 0 7 0 C7.20753906 0.54269531 7.41507813 1.08539063 7.62890625 1.64453125 C9.3642143 5.6742215 10.38439068 7.63300214 14.25 9.9375 C18.24066332 11.06818794 21.87528096 11.63818254 26 12 C22.55815959 15.44184041 19.57806394 16.32024702 14.75 16.4375 C7.99332881 16.33800417 3.68611805 13.68611805 -1 9 C-0.9765625 6.8359375 -0.9765625 6.8359375 -0.625 4.375 C-0.51414062 3.55773437 -0.40328125 2.74046875 -0.2890625 1.8984375 C-0.19367187 1.27195312 -0.09828125 0.64546875 0 0 Z " fill="#066EEA" transform="translate(26,64)"/>
<path d="M0 0 C1.27351308 2.54702616 0.80191925 3.4282945 0.0625 6.125 C-0.13214844 6.84945312 -0.32679687 7.57390625 -0.52734375 8.3203125 C-0.68332031 8.87460937 -0.83929688 9.42890625 -1 10 C-0.01 10.33 0.98 10.66 2 11 C1.67 11.99 1.34 12.98 1 14 C7.27 14.33 13.54 14.66 20 15 C19.67 15.99 19.34 16.98 19 18 C19 17.34 19 16.68 19 16 C8.85102705 15.56873332 8.85102705 15.56873332 -0.58203125 18.484375 C-3.00191351 20.95170593 -4.6818748 23.43605079 -6.375 26.4375 C-8.53608517 28.51546651 -9.73763256 28.23623701 -12.6875 28.25 C-14.1259798 28.18576167 -15.56416999 28.10836453 -17 28 C-17 27.67 -17 27.34 -17 27 C-14.36 27 -11.72 27 -9 27 C-9.33 26.01 -9.66 25.02 -10 24 C-9.0409375 23.7525 -9.0409375 23.7525 -8.0625 23.5 C-5.83880759 22.218214 -5.83880759 22.218214 -5.51171875 20.0859375 C-5.2724022 18.06424845 -5.13106972 16.03158061 -5 14 C-6.32 13.67 -7.64 13.34 -9 13 C-10.32 14.65 -11.64 16.3 -13 18 C-13.99 17.67 -14.98 17.34 -16 17 C-15.43152344 16.443125 -14.86304687 15.88625 -14.27734375 15.3125 C-9.29146714 10.38488906 -4.53204946 5.34810981 0 0 Z " fill="#0F314D" transform="translate(96,49)"/>
<path d="M0 0 C19.14 0 38.28 0 58 0 C58 0.33 58 0.66 58 1 C47.605 1.495 47.605 1.495 37 2 C38.66342837 3.66342837 40.7825709 3.36048097 43.0625 3.5625 C44.44115234 3.68818359 44.44115234 3.68818359 45.84765625 3.81640625 C46.91306641 3.90728516 46.91306641 3.90728516 48 4 C48 4.33 48 4.66 48 5 C36.12 5 24.24 5 12 5 C12 4.34 12 3.68 12 3 C8.06094403 1.85110867 4.06434042 1.47417305 0 1 C0 0.67 0 0.34 0 0 Z " fill="#0F2D49" transform="translate(45,41)"/>
<path d="M0 0 C5.61 0 11.22 0 17 0 C16.67 2.97 16.34 5.94 16 9 C14.68 9 13.36 9 12 9 C12 9.66 12 10.32 12 11 C12.66 11 13.32 11 14 11 C13.34 12.32 12.68 13.64 12 15 C11.67 14.34 11.34 13.68 11 13 C10.34 13 9.68 13 9 13 C8.67 12.01 8.34 11.02 8 10 C7.01 9.34 6.02 8.68 5 8 C5 7.34 5 6.68 5 6 C4.01 6 3.02 6 2 6 C1.67 6.66 1.34 7.32 1 8 C0.01 7.34 -0.98 6.68 -2 6 C-1.34 4.02 -0.68 2.04 0 0 Z " fill="#03A3FA" transform="translate(98,65)"/>
<path d="M0 0 C0 1.66666667 0 3.33333333 0 5 C1.32 4.67 2.64 4.34 4 4 C3.125 7.875 3.125 7.875 2 9 C6.03231733 10.34410578 9.96074399 10.37764089 14.1875 10.62109375 C17 11 17 11 20 13 C9.44 13 -1.12 13 -12 13 C-8.04354855 8.38413998 -4.30058488 4.19819 0 0 Z " fill="#1149AD" transform="translate(76,79)"/>
<path d="M0 0 C2.625 0.375 2.625 0.375 5 1 C5.43994133 5.39941328 5.25137777 7.56794445 3 11.4375 C-0.04403664 14.03761463 -0.4798656 14.38347254 -4.1875 14.4375 C-8 14 -8 14 -10 13 C-9.25 10.0625 -9.25 10.0625 -8 7 C-6 6.375 -6 6.375 -4 6 C-2.83333333 4.08333333 -2.83333333 4.08333333 -2 2 C-1.34 1.34 -0.68 0.68 0 0 Z " fill="#112539" transform="translate(87,61)"/>
<path d="M0 0 C0.66 0.33 1.32 0.66 2 1 C2 1.66 2 2.32 2 3 C3.98 2.67 5.96 2.34 8 2 C8.33 2.66 8.66 3.32 9 4 C11.52733235 4.65555119 11.52733235 4.65555119 14 5 C14 7 14 7 12.609375 8.54296875 C11.99578125 9.08566406 11.3821875 9.62835938 10.75 10.1875 C10.14671875 10.73792969 9.5434375 11.28835937 8.921875 11.85546875 C7 13 7 13 4.828125 12.79296875 C2.35427363 11.71990929 2.12838396 10.39781591 1 8 C-1.03317007 6.26574227 -1.03317007 6.26574227 -3 5 C-1.125 1.125 -1.125 1.125 0 0 Z " fill="#0450CD" transform="translate(56,72)"/>
<path d="M0 0 C-0.66 1.32 -1.32 2.64 -2 4 C-4.31 4 -6.62 4 -9 4 C-9 4.66 -9 5.32 -9 6 C-9.99 5.67 -10.98 5.34 -12 5 C-12 4.34 -12 3.68 -12 3 C-12.99 2.67 -13.98 2.34 -15 2 C-15 0.35 -15 -1.3 -15 -3 C-8.49202707 -4.27607312 -5.43948606 -3.62632404 0 0 Z " fill="#0369E2" transform="translate(108,84)"/>
<path d="M0 0 C-0.33 0.99 -0.66 1.98 -1 3 C-3.375 4.0625 -3.375 4.0625 -6 5 C-6.99 5.66 -7.98 6.32 -9 7 C-9.66 6.67 -10.32 6.34 -11 6 C-12.92514797 5.950548 -14.85206816 5.96360713 -16.77734375 6.0078125 C-17.93041016 6.02457031 -19.08347656 6.04132813 -20.27148438 6.05859375 C-22.71174402 6.10279664 -25.15187423 6.15485634 -27.59179688 6.21484375 C-28.74615234 6.22902344 -29.90050781 6.24320312 -31.08984375 6.2578125 C-32.15066162 6.2798877 -33.21147949 6.30196289 -34.30444336 6.32470703 C-37 6 -37 6 -38.86938477 4.48388672 C-39.24248779 3.9942041 -39.61559082 3.50452148 -40 3 C-39.0620459 2.98018066 -38.1240918 2.96036133 -37.15771484 2.93994141 C-33.65746299 2.8615614 -30.15761836 2.77485919 -26.65771484 2.68261719 C-25.146727 2.64447888 -23.63565304 2.60960028 -22.12451172 2.578125 C-19.94467522 2.53214295 -17.7654238 2.47420675 -15.5859375 2.4140625 C-14.2767334 2.3826416 -12.9675293 2.3512207 -11.61865234 2.31884766 C-7.59998884 1.96475411 -3.93515833 0 0 0 Z " fill="#011435" transform="translate(104,89)"/>
<path d="M0 0 C0.63292969 0.15339844 1.26585937 0.30679688 1.91796875 0.46484375 C6.04026849 1.18062964 10.13766507 1.36150163 14.3125 1.5625 C15.14845703 1.60568359 15.98441406 1.64886719 16.84570312 1.69335938 C18.89696935 1.79885307 20.9484648 1.89987315 23 2 C21.625 3.5 21.625 3.5 20 5 C19.34 5 18.68 5 18 5 C17.67 5.66 17.34 6.32 17 7 C17.66 7.33 18.32 7.66 19 8 C17.02 8.99 17.02 8.99 15 10 C15 9.34 15 8.68 15 8 C12.03 7.67 9.06 7.34 6 7 C6 5.68 6 4.36 6 3 C4.02 2.34 2.04 1.68 0 1 C0 0.67 0 0.34 0 0 Z " fill="#04143B" transform="translate(31,90)"/>
<path d="M0 0 C0.66 0.99 1.32 1.98 2 3 C1.67 3.33 1.34 3.66 1 4 C4.3 3.67 7.6 3.34 11 3 C11.625 5.375 11.625 5.375 12 8 C10 10 10 10 6.375 10.125 C5.26125 10.08375 4.1475 10.0425 3 10 C2.67 9.34 2.34 8.68 2 8 C1.01 8.33 0.02 8.66 -1 9 C-1.99 8.01 -2.98 7.02 -4 6 C-2.84826645 3.53199953 -1.95216435 1.95216435 0 0 Z " fill="#0365E1" transform="translate(61,67)"/>
<path d="M0 0 C0.33 0 0.66 0 1 0 C0.979375 1.093125 0.95875 2.18625 0.9375 3.3125 C0.81455548 6.94384191 0.81455548 6.94384191 2 10 C0.5625 12.6875 0.5625 12.6875 -1 15 C-1.33 14.34 -1.66 13.68 -2 13 C-3.98 13.66 -5.96 14.32 -8 15 C-8 14.01 -8 13.02 -8 12 C-8.66 11.67 -9.32 11.34 -10 11 C-9.44570312 10.45730469 -8.89140625 9.91460937 -8.3203125 9.35546875 C-7.23363281 8.28232422 -7.23363281 8.28232422 -6.125 7.1875 C-5.40570313 6.47980469 -4.68640625 5.77210937 -3.9453125 5.04296875 C-1.84641063 2.95600806 -1.84641063 2.95600806 0 0 Z " fill="#19384F" transform="translate(114,28)"/>
<path d="M0 0 C1.72447904 0.00031742 3.44897767 0.01165954 5.17333984 0.03173828 C6.53415176 0.03598312 6.53415176 0.03598312 7.92245483 0.04031372 C10.82652857 0.05152926 13.73029646 0.07663615 16.63427734 0.10205078 C18.60041873 0.11207881 20.56656494 0.12120497 22.53271484 0.12939453 C27.35835393 0.15147306 32.18376374 0.18601213 37.00927734 0.22705078 C35.57974506 3.19400457 34.07107341 5.50502045 31.88427734 7.97705078 C31.34544922 8.59064453 30.80662109 9.20423828 30.25146484 9.83642578 C29.84154297 10.29533203 29.43162109 10.75423828 29.00927734 11.22705078 C27.65506054 7.57066541 28.4943151 5.71377686 30.00927734 2.22705078 C29.02531982 2.22705078 28.0413623 2.22705078 27.02758789 2.22705078 C16.02148438 2.22705078 5.01538086 2.22705078 -5.99072266 2.22705078 C-3.99072266 0.22705078 -3.99072266 0.22705078 0 0 Z " fill="#22C2F0" transform="translate(59.99072265625,46.77294921875)"/>
<path d="M0 0 C0.33 0.66 0.66 1.32 1 2 C1.66 2 2.32 2 3 2 C2.7834375 3.03447266 2.7834375 3.03447266 2.5625 4.08984375 C0.64271176 13.80877171 0.41340392 21.09356274 3.34375 30.6171875 C4 33 4 33 4 36 C3.01 35.67 2.02 35.34 1 35 C1 33.35 1 31.7 1 30 C0.01 30.33 -0.98 30.66 -2 31 C-1.85871184 27.70812224 -1.71110793 24.4165548 -1.5625 21.125 C-1.50352539 19.74828125 -1.50352539 19.74828125 -1.44335938 18.34375 C-1.16223612 12.2022881 -0.67681987 6.11047926 0 0 Z " fill="#051A38" transform="translate(15,44)"/>
<path d="M0 0 C3.52082979 0.03806302 6.85343525 0.43318705 10.3125 1.125 C10.3125 1.455 10.3125 1.785 10.3125 2.125 C9.40371094 2.34542969 9.40371094 2.34542969 8.4765625 2.5703125 C1.66874211 4.39271365 -3.81401383 7.26349526 -9.6875 11.125 C-10.0175 9.805 -10.3475 8.485 -10.6875 7.125 C-10.0275 6.795 -9.3675 6.465 -8.6875 6.125 C-8.0275 6.455 -7.3675 6.785 -6.6875 7.125 C-6.378125 6.155625 -6.06875 5.18625 -5.75 4.1875 C-4.34833304 0.14740112 -4.34833304 0.14740112 0 0 Z " fill="#0F2B48" transform="translate(35.6875,23.875)"/>
<path d="M0 0 C0.33 0.99 0.66 1.98 1 3 C0.67 3.66 0.34 4.32 0 5 C-1.9375 5.5625 -1.9375 5.5625 -4 6 C-4.99 6.495 -4.99 6.495 -6 7 C-7.67654729 6.72057545 -9.34608154 6.39171753 -11 6 C-11 5.34 -11 4.68 -11 4 C-11.99 3.67 -12.98 3.34 -14 3 C-9.05485878 0.07558908 -5.81671503 -1.74501451 0 0 Z " fill="#1084E0" transform="translate(47,27)"/>
<path d="M0 0 C0.66 0 1.32 0 2 0 C2 0.66 2 1.32 2 2 C2.886875 1.835 3.77375 1.67 4.6875 1.5 C7.53596892 1.07004243 10.13004802 0.91558965 13 1 C13 3.83967231 12.59732819 6.23735711 12 9 C6.80474854 7.6393389 3.82444243 5.64232612 0 2 C0 1.34 0 0.68 0 0 Z " fill="#0533AB" transform="translate(23,82)"/>
<path d="M0 0 C0 1.66666667 0 3.33333333 0 5 C1.32 4.67 2.64 4.34 4 4 C3.125 7.875 3.125 7.875 2 9 C2.99 9.66 3.98 10.32 5 11 C3.02 11 1.04 11 -1 11 C-0.67 10.01 -0.34 9.02 0 8 C-0.99 8 -1.98 8 -3 8 C-3 8.99 -3 9.98 -3 11 C-4.32 10.67 -5.64 10.34 -7 10 C-6.42424336 6.64749299 -5.40693737 5.06181371 -2.9375 2.75 C-2.38964844 2.22921875 -1.84179688 1.7084375 -1.27734375 1.171875 C-0.64505859 0.59179688 -0.64505859 0.59179688 0 0 Z " fill="#0A4CC1" transform="translate(76,79)"/>
<path d="M0 0 C7.26 0 14.52 0 22 0 C17.5 6.75 17.5 6.75 14 9 C13.67 8.01 13.34 7.02 13 6 C13.33 5.34 13.66 4.68 14 4 C14.66 4 15.32 4 16 4 C16 3.34 16 2.68 16 2 C10.72 1.67 5.44 1.34 0 1 C0 0.67 0 0.34 0 0 Z " fill="#0B294A" transform="translate(47,58)"/>
<path d="M0 0 C4.95 0 9.9 0 15 0 C14.67 0.99 14.34 1.98 14 3 C14.66 3 15.32 3 16 3 C16 3.66 16 4.32 16 5 C14.00045254 5.04254356 11.99958364 5.04080783 10 5 C9.67 4.67 9.34 4.34 9 4 C7.65252916 3.76924918 6.29622435 3.58846937 4.9375 3.4375 C3.638125 3.293125 2.33875 3.14875 1 3 C0.67 2.01 0.34 1.02 0 0 Z " fill="#03B7FC" transform="translate(70,48)"/>
<path d="M0 0 C5.28 0.66 10.56 1.32 16 2 C11.7952889 5.15353333 11.14908143 5.36246719 6.25 5.1875 C4.77273437 5.14689453 4.77273437 5.14689453 3.265625 5.10546875 C2.14414062 5.05326172 2.14414062 5.05326172 1 5 C0.67 3.35 0.34 1.7 0 0 Z " fill="#0876E9" transform="translate(34,75)"/>
<path d="M0 0 C5.61 0 11.22 0 17 0 C16.67 2.97 16.34 5.94 16 9 C15.34 9 14.68 9 14 9 C12.23537317 5.91190305 12 4.76687864 12 1 C5.565 1.495 5.565 1.495 -1 2 C-0.67 1.34 -0.34 0.68 0 0 Z " fill="#1FBAF4" transform="translate(98,65)"/>
<path d="M0 0 C0.33 0.66 0.66 1.32 1 2 C-0.61000397 5.13950774 -2.38499232 7.63404067 -5 10 C-4.67 10.66 -4.34 11.32 -4 12 C-4.99 12.33 -5.98 12.66 -7 13 C-7.33 12.67 -7.66 12.34 -8 12 C-9.85287502 11.92773498 -11.70833878 11.9161878 -13.5625 11.9375 C-14.57441406 11.94652344 -15.58632812 11.95554687 -16.62890625 11.96484375 C-17.41136719 11.97644531 -18.19382812 11.98804687 -19 12 C-18.67 11.34 -18.34 10.68 -18 10 C-16.48082685 9.92596622 -14.95833246 9.91660307 -13.4375 9.9375 C-8.52129224 9.59796335 -6.59365962 8.12254858 -3.375 4.4375 C-2.2235421 2.97883495 -1.08906061 1.50582403 0 0 Z " fill="#1271D6" transform="translate(96,67)"/>
<path d="M0 0 C2.31 0.66 4.62 1.32 7 2 C6.34 3.32 5.68 4.64 5 6 C1.7 6 -1.6 6 -5 6 C-3.35 4.02 -1.7 2.04 0 0 Z " fill="#0690EB" transform="translate(53,50)"/>
<path d="M0 0 C0.75 1.5625 0.75 1.5625 1 4 C-1.56818399 9.99242931 -4.07697388 12.34485036 -10 15 C-13.4375 15.75 -13.4375 15.75 -16 16 C-16 15.34 -16 14.68 -16 14 C-15.030625 13.71125 -14.06125 13.4225 -13.0625 13.125 C-9.89335797 12.35785318 -9.89335797 12.35785318 -9 10 C-8.34 10 -7.68 10 -7 10 C-3.52071486 6.9556255 -1.39153744 4.42761914 0 0 Z " fill="#071523" transform="translate(127,98)"/>
<path d="M0 0 C0.94875 0.350625 1.8975 0.70125 2.875 1.0625 C2.875 0.4025 2.875 -0.2575 2.875 -0.9375 C3.535 -0.9375 4.195 -0.9375 4.875 -0.9375 C3.49311547 2.27293882 1.95078097 4.11186365 -0.75 6.3125 C-1.69746094 7.09367187 -1.69746094 7.09367187 -2.6640625 7.890625 C-3.14617187 8.27734375 -3.62828125 8.6640625 -4.125 9.0625 C-3.94066406 8.45921875 -3.75632812 7.8559375 -3.56640625 7.234375 C-2.97571244 4.32795235 -3.88295015 2.6927232 -5.125 0.0625 C-3.125 -0.9375 -3.125 -0.9375 0 0 Z " fill="#2ACBED" transform="translate(108.125,29.9375)"/>
<path d="M0 0 C1.4540625 0.0309375 1.4540625 0.0309375 2.9375 0.0625 C2.6075 1.0525 2.2775 2.0425 1.9375 3.0625 C2.5975 3.3925 3.2575 3.7225 3.9375 4.0625 C1.9575 5.0525 1.9575 5.0525 -0.0625 6.0625 C-0.0625 5.4025 -0.0625 4.7425 -0.0625 4.0625 C-3.0325 3.7325 -6.0025 3.4025 -9.0625 3.0625 C-9.0625 2.4025 -9.0625 1.7425 -9.0625 1.0625 C-7.8559375 1.0934375 -7.8559375 1.0934375 -6.625 1.125 C-3.4084517 1.0465476 -3.39792468 0.0693454 0 0 Z " fill="#061826" transform="translate(46.0625,93.9375)"/>
<path d="M0 0 C-1.36370299 2.99220268 -2.94908083 5.29026529 -5.125 7.75 C-5.93324219 8.67039062 -5.93324219 8.67039062 -6.7578125 9.609375 C-7.16773437 10.06828125 -7.57765625 10.5271875 -8 11 C-9.22419163 7.06204091 -8.48320272 4.83887763 -7 1 C-2.25 0 -2.25 0 0 0 Z " fill="#1ABDEC" transform="translate(97,47)"/>
<path d="M0 0 C0.33 0 0.66 0 1 0 C1.22245393 1.60226955 1.42746669 3.20696767 1.625 4.8125 C1.74101563 5.70582031 1.85703125 6.59914063 1.9765625 7.51953125 C2 10 2 10 0 13 C-0.63292383 15.11280345 -0.63292383 15.11280345 -1 17 C-1.9702889 14.08913331 -2.16467847 12.09776315 -2.1875 9.0625 C-2.20167969 8.20785156 -2.21585938 7.35320313 -2.23046875 6.47265625 C-1.98703556 3.86090697 -1.3178268 2.24499348 0 0 Z " fill="#071E42" transform="translate(34,50)"/>
<path d="M0 0 C0.66 0 1.32 0 2 0 C0.5682479 5.01113235 -1.98445693 6.94469549 -6 10 C-6.6875 7.6875 -6.6875 7.6875 -7 5 C-5.5625 3.1875 -5.5625 3.1875 -4 2 C-4 2.66 -4 3.32 -4 4 C-3.34 4 -2.68 4 -2 4 C-2 3.34 -2 2.68 -2 2 C-1.34 2 -0.68 2 0 2 C0 1.34 0 0.68 0 0 Z " fill="#0777E1" transform="translate(79,64)"/>
<path d="M0 0 C1.125 1.6875 1.125 1.6875 2 4 C1.125 6.75 1.125 6.75 0 9 C-0.99 8.67 -1.98 8.34 -3 8 C-4.1875 4.9375 -4.1875 4.9375 -5 2 C-3.35 1.34 -1.7 0.68 0 0 Z " fill="#0563E1" transform="translate(33,45)"/>
<path d="M0 0 C4.29 0.99 8.58 1.98 13 3 C13 3.33 13 3.66 13 4 C8.38 4.33 3.76 4.66 -1 5 C-0.67 3.35 -0.34 1.7 0 0 Z " fill="#0187F6" transform="translate(45,35)"/>
<path d="M0 0 C1.4540625 0.0309375 1.4540625 0.0309375 2.9375 0.0625 C2.9375 2.0425 2.9375 4.0225 2.9375 6.0625 C1.2875 6.0625 -0.3625 6.0625 -2.0625 6.0625 C-2.7225 4.4125 -3.3825 2.7625 -4.0625 1.0625 C-3.0625 0.0625 -3.0625 0.0625 0 0 Z " fill="#0076EF" transform="translate(94.0625,74.9375)"/>
<path d="M0 0 C0.33 0 0.66 0 1 0 C1 1.65 1 3.3 1 5 C1.66 5 2.32 5 3 5 C2.34 8.96 1.68 12.92 1 17 C-2.12500425 12.31249363 -1.38694579 7.37004297 -0.5 1.9375 C-0.335 1.298125 -0.17 0.65875 0 0 Z " fill="#0C45B9" transform="translate(16,52)"/>
<path d="M0 0 C3.80635497 3.20760251 7.54563567 6.40746109 11 10 C8.69 10 6.38 10 4 10 C4 9.01 4 8.02 4 7 C2.68 6.34 1.36 5.68 0 5 C0 3.35 0 1.7 0 0 Z " fill="#04153B" transform="translate(20,80)"/>
<path d="M0 0 C0.33 0.99 0.66 1.98 1 3 C0.67 3.66 0.34 4.32 0 5 C-0.99 4.67 -1.98 4.34 -3 4 C-5.33299825 3.96045766 -7.66708189 3.95598268 -10 4 C-10 3.34 -10 2.68 -10 2 C-6.49223216 0.39644899 -3.85645121 -0.22036864 0 0 Z " fill="#008BF8" transform="translate(47,27)"/>
<path d="M0 0 C0.33 0 0.66 0 1 0 C1 1.98 1 3.96 1 6 C1.66 6 2.32 6 3 6 C3 4.02 3 2.04 3 0 C3.99 0 4.98 0 6 0 C5.125 4.75 5.125 4.75 4 7 C3.34 7 2.68 7 2 7 C1.67 7.66 1.34 8.32 1 9 C0.34 9 -0.32 9 -1 9 C-0.67 6.03 -0.34 3.06 0 0 Z " fill="#0262E2" transform="translate(26,64)"/>
<path d="M0 0 C1.32 0 2.64 0 4 0 C3.46939601 4.51013391 1.69113883 7.38378219 -1 11 C-1.33 11 -1.66 11 -2 11 C-2 9.35 -2 7.7 -2 6 C-1.34 6 -0.68 6 0 6 C0.33 5.01 0.66 4.02 1 3 C0.67 2.67 0.34 2.34 0 2 C0 1.34 0 0.68 0 0 Z " fill="#108DDD" transform="translate(110,74)"/>
<path d="M0 0 C1.94268841 2.91403262 3.46395304 5.85808576 5 9 C2.69 8.67 0.38 8.34 -2 8 C-1.47731534 5.23723823 -0.89130413 2.6739124 0 0 Z " fill="#0B67D6" transform="translate(32,64)"/>
<path d="M0 0 C0.66 0.33 1.32 0.66 2 1 C1.34 3.31 0.68 5.62 0 8 C-1.98 8 -3.96 8 -6 8 C-4.02 5.36 -2.04 2.72 0 0 Z " fill="#0B80E0" transform="translate(68,59)"/>
<path d="M0 0 C0.66 0.99 1.32 1.98 2 3 C1.34 4.32 0.68 5.64 0 7 C0.66 7.33 1.32 7.66 2 8 C1.01 8.33 0.02 8.66 -1 9 C-1.99 8.01 -2.98 7.02 -4 6 C-2.84826645 3.53199953 -1.95216435 1.95216435 0 0 Z " fill="#085ED2" transform="translate(61,67)"/>
<path d="M0 0 C0.66 0 1.32 0 2 0 C2 0.66 2 1.32 2 2 C3.0725 1.649375 4.145 1.29875 5.25 0.9375 C9.92307692 -0.23076923 9.92307692 -0.23076923 13 1 C12.67 1.66 12.34 2.32 12 3 C7.05 3 2.1 3 -3 3 C-2.01 2.01 -1.02 1.02 0 0 Z " fill="#172F42" transform="translate(102,60)"/>
<path d="M0 0 C0.99 0.33 1.98 0.66 3 1 C0.525 5.455 0.525 5.455 -2 10 C-2.99 9.01 -3.98 8.02 -5 7 C-4.6875 4.8125 -4.6875 4.8125 -4 3 C-4 3.66 -4 4.32 -4 5 C-3.01 5 -2.02 5 -1 5 C-0.67 3.35 -0.34 1.7 0 0 Z " fill="#082140" transform="translate(21,36)"/>
<path d="M0 0 C-2.85276137 2.93200474 -5.65079784 5.64315404 -9 8 C-8.125 3.25 -8.125 3.25 -7 1 C-2.44155844 -1.22077922 -2.44155844 -1.22077922 0 0 Z " fill="#1B2C3E" transform="translate(14,8)"/>
<path d="M0 0 C7.26 0 14.52 0 22 0 C21.01 0.99 20.02 1.98 19 3 C18.67 2.67 18.34 2.34 18 2 C16.65984779 1.84417697 15.31241097 1.74955858 13.96484375 1.68359375 C13.15595703 1.64169922 12.34707031 1.59980469 11.51367188 1.55664062 C10.66353516 1.51732422 9.81339844 1.47800781 8.9375 1.4375 C8.08349609 1.39431641 7.22949219 1.35113281 6.34960938 1.30664062 C4.23327963 1.20023298 2.11666187 1.09958269 0 1 C0 0.67 0 0.34 0 0 Z " fill="#011F47" transform="translate(47,58)"/>
<path d="M0 0 C0.89203125 0.00902344 1.7840625 0.01804688 2.703125 0.02734375 C3.37859375 0.03894531 4.0540625 0.05054688 4.75 0.0625 C0.24192825 2.36808347 -3.15285901 3.20408725 -8.25 3.0625 C-8.58 2.4025 -8.91 1.7425 -9.25 1.0625 C-6.09493858 0.12630187 -3.28413498 -0.0432123 0 0 Z " fill="#1E2F3F" transform="translate(24.25,2.9375)"/>
<path d="M0 0 C0.99 0 1.98 0 3 0 C2.125 3.875 2.125 3.875 1 5 C1.99 5.66 2.98 6.32 4 7 C2.02 7 0.04 7 -2 7 C-2.125 4.625 -2.125 4.625 -2 2 C-1.34 1.34 -0.68 0.68 0 0 Z " fill="#004DCB" transform="translate(77,83)"/>
<path d="M0 0 C0.99 0.309375 1.98 0.61875 3 0.9375 C6.97731122 2.08433207 10.88767379 2.56712356 15 3 C15 3.33 15 3.66 15 4 C9.54230189 4.11138159 4.38490641 3.91657981 -1 3 C-0.67 2.01 -0.34 1.02 0 0 Z " fill="#1168CF" transform="translate(37,73)"/>
<path d="M0 0 C2 3 2 3 1.875 5 C0.76097537 7.54634201 -0.69550623 8.51322983 -3 10 C-2.49287967 6.28111761 -1.88391785 3.26545761 0 0 Z " fill="#0C56C9" transform="translate(20,42)"/>
<path d="M0 0 C0.66 0.33 1.32 0.66 2 1 C0.5625 3.5 0.5625 3.5 -2 6 C-5.04256578 6.4451258 -7.9465865 6.29359745 -11 6 C-11 5.67 -11 5.34 -11 5 C-8.36 5 -5.72 5 -3 5 C-3.33 4.01 -3.66 3.02 -4 2 C-2.125 0.9375 -2.125 0.9375 0 0 Z " fill="#062A5A" transform="translate(90,71)"/>
<path d="M0 0 C0.99 0.495 0.99 0.495 2 1 C2 2.32 2 3.64 2 5 C2.639375 5.12375 3.27875 5.2475 3.9375 5.375 C4.618125 5.58125 5.29875 5.7875 6 6 C6.33 6.66 6.66 7.32 7 8 C6.34 8.66 5.68 9.32 5 10 C0.07692308 5.69230769 0.07692308 5.69230769 -0.3125 2.1875 C-0.209375 1.465625 -0.10625 0.74375 0 0 Z " fill="#003FC0" transform="translate(17,63)"/>
<path d="M0 0 C0.99 0 1.98 0 3 0 C2.01 2.97 1.02 5.94 0 9 C-0.33 9 -0.66 9 -1 9 C-1.09765625 2.84765625 -1.09765625 2.84765625 -1 1 C-0.67 0.67 -0.34 0.34 0 0 Z " fill="#253341" transform="translate(1,14)"/>
<path d="M0 0 C1.22589844 0.01353516 1.22589844 0.01353516 2.4765625 0.02734375 C3.41628906 0.04474609 3.41628906 0.04474609 4.375 0.0625 C4.375 0.7225 4.375 1.3825 4.375 2.0625 C3.3025 2.041875 2.23 2.02125 1.125 2 C-1.77290424 2.0482984 -3.91112141 2.19405885 -6.625 3.0625 C-6.625 2.4025 -6.625 1.7425 -6.625 1.0625 C-4.21954362 -0.14022819 -2.67503047 -0.03821472 0 0 Z " fill="#0163E8" transform="translate(83.625,77.9375)"/>
<path d="M0 0 C0.33 0 0.66 0 1 0 C1.33 2.31 1.66 4.62 2 7 C1.01 7.495 1.01 7.495 0 8 C-0.99 7.67 -1.98 7.34 -3 7 C-1.125 2.25 -1.125 2.25 0 0 Z " fill="#0A2244" transform="translate(113,77)"/>
<path d="M0 0 C0.66 0.99 1.32 1.98 2 3 C-0.475 4.485 -0.475 4.485 -3 6 C-3 5.01 -3 4.02 -3 3 C-3.66 3 -4.32 3 -5 3 C-5 2.34 -5 1.68 -5 1 C-3.35 0.67 -1.7 0.34 0 0 Z " fill="#074ABC" transform="translate(65,79)"/>
<path d="M0 0 C1.45922693 0.11409593 2.91740598 0.24165544 4.375 0.375 C5.59316406 0.47941406 5.59316406 0.47941406 6.8359375 0.5859375 C9 1 9 1 11 3 C9.9275 2.979375 8.855 2.95875 7.75 2.9375 C4.85209576 2.9857984 2.71387859 3.13155885 0 4 C0 2.68 0 1.36 0 0 Z " fill="#0474F4" transform="translate(34,75)"/>
<path d="M0 0 C-0.60183749 2.02045442 -1.27306096 4.02111039 -2 6 C-2.99 6.495 -2.99 6.495 -4 7 C-4.6875 5.1875 -4.6875 5.1875 -5 3 C-3.38441968 0.84589291 -2.74502455 0 0 0 Z " fill="#25324C" transform="translate(116,36)"/>
<path d="M0 0 C0 0.99 0 1.98 0 3 C-4.455 3.495 -4.455 3.495 -9 4 C-3 0 -3 0 0 0 Z " fill="#041543" transform="translate(60,88)"/>
<path d="M0 0 C0.33 0.66 0.66 1.32 1 2 C-1.40983607 6.70491803 -1.40983607 6.70491803 -4 8 C-3.50168276 4.31245243 -2.89932357 2.39509338 0 0 Z " fill="#158BE0" transform="translate(96,67)"/>
<path d="M0 0 C1.32 1.32 2.64 2.64 4 4 C2.68 4.99 1.36 5.98 0 7 C0 6.34 0 5.68 0 5 C-0.66 4.67 -1.32 4.34 -2 4 C-1.34 3.34 -0.68 2.68 0 2 C0 1.34 0 0.68 0 0 Z " fill="#03172F" transform="translate(64,84)"/>
<path d="M0 0 C0.66 0 1.32 0 2 0 C0.75023244 3.65316671 0.32901247 4.78065836 -3 7 C-3.33 6.01 -3.66 5.02 -4 4 C-3.34 4 -2.68 4 -2 4 C-2 3.34 -2 2.68 -2 2 C-1.34 2 -0.68 2 0 2 C0 1.34 0 0.68 0 0 Z " fill="#117DD6" transform="translate(79,64)"/>
</svg>
